PathFileType	4	(X/Y/Z)	A:\Common\BMMB\PROJECTS\STRATO\DataSTRATO\DataSTRATO\0021~016 ID\0021~aa~ID 016\W8_STRATO_ID_16.trc
DataRate	CameraRate	NumFrames	NumMarkers	Units	OrigDataRate	OrigDataStartFrame	OrigNumFrames
250.00	250.00	18	18	mm	250.00	245	2481
Frame#	Time	r.should			l.should			c7			r.asis			l.asis			sacrum			r.bar1			l.bar1			r.knee1			l.knee1			r.bar2			r.mall			l.bar2			l.mall			r.met			r.heel			l.heel			l.met			
		X1	Y1	Z1	X2	Y2	Z2	X3	Y3	Z3	X4	Y4	Z4	X5	Y5	Z5	X6	Y6	Z6	X7	Y7	Z7	X8	Y8	Z8	X9	Y9	Z9	X10	Y10	Z10	X11	Y11	Z11	X12	Y12	Z12	X13	Y13	Z13	X14	Y14	Z14	X15	Y15	Z15	X16	Y16	Z16	X17	Y17	Z17	X18	Y18	Z18	

1408	5.632000	323.745281	1334.690332	848.298311	25.328159	1342.188478	844.127238	184.789121	1397.518873	923.711896	295.034856	888.153076	741.680384	57.066649	880.764723	732.791781	163.529977	951.591969	965.112507	374.419868	808.369815	841.647148	-24.185915	786.521435	794.995844	293.194532	457.111984	879.217505	45.478769	484.732866	674.690247	277.133524	405.220449	873.737574	235.380635	73.400445	965.733349	43.455914	442.870647	674.782932	71.054794	79.443574	745.799482	229.865700	36.276165	826.208949	181.282982	46.933152	1020.222068	117.686793	62.261369	810.521960	96.098237	51.233619	614.422917	
1409	5.636000	324.003965	1334.598303	843.977094	25.624078	1341.830373	840.026200	185.038209	1397.314548	919.482112	295.697480	887.393832	738.213539	57.615459	880.797088	728.616595	163.700283	951.373219	961.064160	374.495059	807.552874	838.518202	-23.876887	786.583126	790.694833	293.004751	456.592798	876.131296	45.869391	484.355748	671.243727	276.952535	404.669881	870.804965	235.230923	73.511384	965.404272	43.933015	442.441285	670.545578	71.952879	77.022955	732.087493	229.856044	36.255341	826.097488	181.117475	47.298037	1020.040035	119.461864	58.215588	794.924498	96.333273	51.636286	599.875212	
1410	5.640000	324.243128	1334.477901	839.643359	25.917007	1341.430068	835.941434	185.287803	1397.066712	915.256858	296.381891	886.514068	734.701157	58.126695	880.748093	724.480569	163.816959	951.146245	957.045257	374.485701	806.740880	835.317016	-23.505310	786.612749	786.264539	292.841673	456.053734	873.045206	46.243981	483.945519	667.933702	276.785254	404.110312	867.929220	235.084176	73.638722	965.102315	44.327658	441.995561	666.477501	72.687119	74.776649	718.341947	229.880556	36.255404	826.017439	180.947170	47.669504	1019.849181	120.279990	54.789111	780.695915	96.635073	52.316692	585.418344	
1411	5.644000	324.497968	1334.318519	835.291386	26.193585	1341.001630	831.772149	185.535789	1396.793008	911.064625	297.073156	885.693133	731.247544	58.648963	880.748093	720.196068	163.898215	950.876474	953.009188	374.500930	805.918992	832.212567	-23.127673	786.574602	781.824172	292.671055	455.524266	870.007396	46.581343	483.539194	664.858758	276.632130	403.552473	865.090787	234.943956	73.780619	964.778841	44.709757	441.528320	662.537336	73.435381	72.712660	704.655826	229.910448	36.280118	825.927377	180.767000	48.051581	1019.665837	121.130489	51.542085	766.460896	97.044900	53.182345	571.143508	
1412	5.648000	324.717671	1334.146142	830.933988	26.432527	1340.574980	827.589154	185.762063	1396.488667	906.869709	297.816992	884.846628	727.772713	59.159286	880.634248	715.975702	163.978457	950.568199	948.944092	374.530405	805.085659	829.035461	-22.838112	786.481500	777.536750	292.515844	454.988658	866.953671	46.980321	482.894629	661.521792	276.478916	402.999431	862.272620	234.876603	73.919065	964.364469	45.047194	441.041797	658.804893	74.139573	70.852578	691.170752	229.901418	36.268301	825.819731	180.561379	48.433229	1019.464493	122.003354	48.528478	752.301991	97.480848	54.220010	556.907296	
1413	5.652000	324.970692	1333.933711	826.532543	26.653329	1340.111017	823.425174	185.971811	1396.144390	902.634263	298.523456	884.007573	724.253118	59.626155	880.483806	711.843491	164.006293	950.259924	944.857538	374.481887	804.248869	825.758040	-22.508636	786.399186	773.148537	292.358756	454.458624	863.949835	47.339879	482.254088	658.447504	276.337206	402.466357	859.509468	234.809011	74.134581	964.033365	45.333251	440.496802	655.200660	74.880652	69.314659	677.651405	229.907334	36.293391	825.724721	180.350870	48.806369	1019.272327	122.864246	45.729894	738.200545	98.056212	55.530339	542.744160	
1414	5.656000	325.186968	1333.712101	822.166085	26.873920	1339.660645	819.341540	186.189741	1395.780087	898.369551	299.185693	883.160889	720.719397	60.134657	880.331159	707.522273	164.005756	949.921429	940.774143	374.472618	803.441465	822.507262	-22.140602	786.236763	768.696308	292.204350	453.919917	860.958636	47.754623	481.500983	655.551910	276.196897	401.900619	856.810212	234.488919	74.440770	963.999867	45.568775	439.889908	651.723027	75.613298	67.954771	664.229155	229.916394	36.291316	825.637579	180.145815	49.195945	1019.097567	123.671845	43.212704	724.197209	98.764062	57.147820	528.743505	
1415	5.660000	325.378627	1333.441496	817.857921	27.110569	1339.165211	815.226078	186.399624	1395.405293	894.159913	299.881876	882.270873	717.124701	60.589004	880.076349	703.351915	163.975909	949.531615	936.649084	374.498427	802.628875	819.232345	-21.832487	786.028445	764.308453	292.073309	453.379691	858.016193	48.220582	480.540037	652.846694	276.068956	401.334405	854.131401	234.308288	74.629508	963.758349	45.755975	439.206153	648.461103	76.537579	67.247987	650.309741	229.911953	36.269169	825.532556	179.936841	49.594276	1018.913984	124.498382	40.947706	710.302830	99.556625	58.939878	514.996469	
1416	5.664000	325.591862	1333.154798	813.486934	27.327415	1338.595390	811.049283	186.580941	1394.980431	889.956594	300.535679	881.441176	713.540614	61.035499	879.743338	699.186504	163.911939	949.097872	932.503700	374.530613	801.822722	815.845132	-21.541467	785.713017	759.789348	291.928560	452.830374	855.118096	48.491236	479.734659	650.227666	275.932103	400.752872	851.482630	234.154791	74.824721	963.501155	45.857921	438.406318	645.369768	77.621795	67.396536	635.615945	229.919717	36.270052	825.443029	179.731607	50.009485	1018.740535	125.351086	38.962610	696.606457	100.358292	60.797323	501.542449	
1417	5.668000	325.768650	1332.865119	809.122801	27.518064	1337.993145	806.842685	186.750159	1394.529462	885.740280	301.109195	880.652905	709.969282	61.519295	879.422963	694.863617	163.817704	948.632479	928.383946	374.623001	801.086187	812.449932	-21.235857	785.448194	755.214810	291.787535	452.294707	852.268636	48.712142	478.822827	647.540092	275.790036	400.161147	848.906279	234.012380	75.012952	963.238060	45.844611	437.520593	642.484426	78.367792	66.485152	623.020649	229.932874	36.256753	825.374603	179.543063	50.432742	1018.575311	126.186594	37.182070	683.166742	101.439118	62.866189	488.365680	
1418	5.672000	325.948358	1332.498312	804.806530	27.676668	1337.392569	802.617788	186.920285	1394.056559	881.493211	301.679373	879.886031	706.351995	61.975840	879.068375	690.585077	163.708866	948.147774	924.260736	374.722004	800.398409	809.021652	-20.954933	785.124719	750.679016	291.672379	451.753914	849.380791	48.845790	477.902591	645.043492	275.668651	399.593174	846.374393	233.893365	75.205751	962.960958	45.795381	436.515808	639.671087	79.126701	65.550663	611.038387	229.916871	36.224201	825.291514	179.356098	50.857473	1018.394947	126.988426	35.591293	670.042872	102.556653	65.064117	475.372910	
1419	5.676000	326.163471	1332.117319	800.500333	27.854986	1336.801767	798.454463	187.084496	1393.558502	877.248228	302.300602	878.966153	702.658057	62.415771	878.587306	686.435997	163.578734	947.622299	920.096099	374.810636	799.692094	805.520773	-20.762967	784.771144	746.321797	291.542679	451.207459	846.530318	48.870478	476.888597	642.584801	275.554478	399.017155	843.868375	233.776361	75.406224	962.696373	45.661382	435.430646	637.004972	80.114715	65.646768	598.148048	229.911119	36.229007	825.209558	179.190382	51.275507	1018.229485	127.816066	34.425572	657.181501	103.753917	67.315325	462.715626	
1420	5.680000	326.325327	1331.742883	796.175838	28.059382	1336.227417	794.305921	187.252283	1393.054247	873.036027	302.920103	878.145456	699.005425	62.895477	878.164887	682.078302	163.419738	947.082520	915.917635	374.897748	798.982501	801.989615	-20.596271	784.393430	741.934180	291.420162	450.662255	843.727112	48.762202	475.818783	640.184522	275.436193	398.446590	841.405094	233.670264	75.633734	962.421536	45.428298	434.251994	634.373665	80.935195	65.188870	586.604714	229.915977	36.253899	825.138509	179.037780	51.715665	1018.097639	128.755420	33.495225	644.490421	105.139539	69.701537	450.447261	
1421	5.684000	326.462388	1331.344485	791.894257	28.196748	1335.623026	790.211439	187.391698	1392.511129	868.813038	303.488374	877.360821	695.292115	63.360974	877.692521	677.702725	163.237303	946.529984	911.734819	375.022322	798.322976	798.400581	-20.412724	783.956945	737.482905	291.309178	450.143814	840.956688	48.568472	474.686146	637.834072	275.341094	397.870928	838.992476	233.572066	75.876296	962.165713	45.174837	433.022797	631.758988	82.191825	66.005200	573.769093	229.928285	36.255557	825.083137	178.905964	52.178893	1017.965913	129.794836	32.750748	632.165074	106.401764	72.152063	438.624144	
1422	5.688000	326.615036	1330.926180	787.588716	28.325044	1334.961057	786.037922	187.518254	1391.927361	864.596426	303.974956	876.524210	691.480756	63.793153	877.127171	673.384011	163.041338	945.925117	907.498777	375.157177	797.702551	794.840038	-20.217691	783.526778	732.876897	291.195512	449.619591	838.181555	48.311431	473.464131	635.381103	275.255919	397.298038	836.586952	233.484238	76.116540	961.912632	44.842966	431.796074	629.215777	83.331965	66.341192	562.106490	229.929611	36.249369	825.027347	178.784966	52.661203	1017.818570	130.917400	32.149278	620.119452	107.626528	74.551754	426.954836	
1423	5.692000	326.719701	1330.478430	783.274174	28.471198	1334.294558	781.823218	187.623113	1391.345024	860.401809	304.428816	875.726700	687.632561	64.261228	876.602352	668.944120	162.836447	945.323169	903.267026	375.280321	797.062755	791.185558	-20.054894	783.077598	728.332639	291.115314	449.114472	835.471749	47.944278	472.175419	632.914424	275.186449	396.753132	834.186494	233.403713	76.388277	961.675823	44.456556	430.552781	626.585305	84.360905	66.756979	550.960898	229.901239	36.237773	824.965715	178.673118	53.201035	1017.709136	132.087395	31.717092	608.408332	108.857304	76.764032	415.527046	
1424	5.696000	326.801747	1329.998970	778.989375	28.588530	1333.610058	777.668118	187.731415	1390.742302	856.197536	304.890573	874.954820	683.788180	64.725816	876.058519	664.587855	162.602901	944.727600	899.017453	375.425965	796.461761	787.519813	-19.919628	782.563746	723.753750	291.059911	448.605716	832.773626	47.486566	470.814377	630.463123	275.108129	396.242470	831.787348	233.345121	76.665774	961.420655	44.086933	429.351777	623.852193	85.338935	67.163892	540.201306	229.897723	36.240354	824.922085	178.591222	53.727344	1017.576456	133.275256	31.418342	597.099125	109.995097	79.205394	404.799908	
1425	5.700000	326.910257	1329.528093	774.703860	28.710626	1332.960606	773.530841	187.820956	1390.122652	852.006018	305.367917	874.140322	679.982364	65.161824	875.415444	660.281658	162.357509	944.126368	894.747257	375.570208	795.895338	783.821583	-19.807475	782.051742	719.158292	291.008651	448.087156	830.069423	46.975557	469.410449	627.939582	275.028497	395.713389	829.382360	233.313367	76.962039	961.144567	43.721918	428.217441	621.021152	86.362675	67.648403	529.801846	229.889438	36.242232	824.882329	178.540409	54.259367	1017.431736	134.467214	31.240078	586.221099	111.059695	81.634045	394.522250	
